<?xml version="1.0" encoding="UTF-8"?>
<svg version="1.1" xmlns="http://www.w3.org/2000/svg" width="30" height="31">
<path d="M0 0 C3.58235205 2.55696868 6.09125884 4.57990126 7.78125 8.7265625 C8.7979964 14.82704089 5.89644526 19.67302353 2.78125 24.7265625 C-0.13740052 28.22894313 -2.54981385 29.05310958 -6.96875 29.4765625 C-12.65843836 29.28889662 -15.56589903 26.53375203 -19.50390625 22.671875 C-21.98358278 19.85893898 -22.68463315 17.71506168 -22.62890625 13.93359375 C-21.50752379 7.89948813 -18.13641597 2.22734456 -13.34375 -1.5234375 C-8.28369684 -2.73785026 -4.48281172 -2.57288137 0 0 Z M-12.21875 6.7265625 C-11.21875 9.7265625 -11.21875 9.7265625 -11.21875 9.7265625 Z M-3.21875 17.7265625 C-2.21875 20.7265625 -2.21875 20.7265625 -2.21875 20.7265625 Z " fill="#050D13" transform="translate(22.21875,2.2734375)"/>
<path d="M0 0 C3.32741108 0.59496754 5.17090408 1.70477173 7.6875 3.9375 C8.28949219 4.46214844 8.89148438 4.98679687 9.51171875 5.52734375 C11.63826796 7.63156698 11.97898153 8.81083376 12.3125 11.8125 C11.92653707 15.74932188 10.76603321 17.23396679 8 20 C4.2350613 21.25497957 1.96991382 21.52064444 -2 21 C-5.72428696 18.77071988 -9.22231786 16.16580296 -10.7265625 11.9765625 C-11 10.0625 -11 10.0625 -11 7 C-10.31164062 7.59748047 -10.31164062 7.59748047 -9.609375 8.20703125 C-8.34489219 9.29884308 -7.07514013 10.3845756 -5.80078125 11.46484375 C-4.49361675 12.5791944 -3.20848712 13.71955716 -1.9375 14.875 C0.77850678 16.45203619 2.92213411 16.27358808 6 16 C7.24496815 14.95722365 7.24496815 14.95722365 7.3125 12.67578125 C6.90175262 9.15875678 5.72598449 8.35976889 3 6.1875 C2.2575 5.58292969 1.515 4.97835938 0.75 4.35546875 C0.1725 3.90816406 -0.405 3.46085938 -1 3 C-0.67 2.01 -0.34 1.02 0 0 Z " fill="#3D99E3" transform="translate(13,9)"/>
<path d="M0 0 C4.41351746 1.19304037 7.29493945 4.38100264 10.35546875 7.63671875 C10.68546875 7.96671875 11.01546875 8.29671875 11.35546875 8.63671875 C11.39639812 10.96969308 11.39788598 13.303771 11.35546875 15.63671875 C10.33453125 14.58484375 10.33453125 14.58484375 9.29296875 13.51171875 C8.3172774 12.54984739 7.33771994 11.59189033 6.35546875 10.63671875 C5.50662109 9.79367187 5.50662109 9.79367187 4.640625 8.93359375 C1.14063758 5.45236946 1.14063758 5.45236946 -3.51953125 4.69921875 C-5.58645687 5.45813509 -5.58645687 5.45813509 -6.64453125 6.63671875 C-7.06220109 9.01771096 -7.06220109 9.01771096 -6.64453125 11.63671875 C-4.92882858 13.74106737 -4.92882858 13.74106737 -2.64453125 15.44921875 C-1.90203125 16.05378906 -1.15953125 16.65835937 -0.39453125 17.28125 C0.47171875 17.95220703 0.47171875 17.95220703 1.35546875 18.63671875 C1.02546875 19.62671875 0.69546875 20.61671875 0.35546875 21.63671875 C-3.99337715 21.13492884 -6.53897003 18.53974337 -9.64453125 15.63671875 C-11.94640541 12.3931688 -12.20447733 9.55634131 -11.64453125 5.63671875 C-8.47838728 0.93856964 -5.46067119 -0.26525873 0 0 Z " fill="#3E9BE6" transform="translate(16.64453125,1.36328125)"/>
<path d="M0 0 C5.53846154 0.49230769 5.53846154 0.49230769 7.875 3.0625 C8.431875 4.0215625 8.431875 4.0215625 9 5 C8.34 5 7.68 5 7 5 C6.67 5.66 6.34 6.32 6 7 C1.2 4.53846154 1.2 4.53846154 0.1875 1.8125 C0.125625 1.214375 0.06375 0.61625 0 0 Z " fill="#08141E" transform="translate(12,5)"/>
<path d="M0 0 C3.25543229 0.34879632 4.01873107 1.02133261 6.25 3.5625 C6.8275 4.366875 7.405 5.17125 8 6 C7.34 6 6.68 6 6 6 C5.67 6.66 5.34 7.32 5 8 C0 2.25 0 2.25 0 0 Z " fill="#020508" transform="translate(19,10)"/>
<path d="M0 0 C1.5625 1.75 1.5625 1.75 3 4 C2.6875 6.25 2.6875 6.25 2 8 C1.34 8 0.68 8 0 8 C-0.33 7.34 -0.66 6.68 -1 6 C-1.66 6.66 -2.32 7.32 -3 8 C-2.37240135 5.07120629 -1.41377341 2.63904371 0 0 Z " fill="#020508" transform="translate(3,9)"/>
</svg>
