<svg width="190" height="37" viewBox="0 0 190 37" fill="none" xmlns="http://www.w3.org/2000/svg">
<path d="M52.4923 29.7531C51.1065 29.7531 49.8011 29.5523 48.5759 29.1506C47.3508 28.7489 46.3165 28.0962 45.473 27.1924C44.6294 26.2886 44.0671 25.0936 43.7859 23.6074H47.0696C47.3307 24.4509 47.7525 25.1137 48.3349 25.5957C48.9174 26.0576 49.5902 26.379 50.3534 26.5597C51.1367 26.7405 51.9199 26.8309 52.7032 26.8309C53.4463 26.8309 54.1392 26.7304 54.7819 26.5296C55.4447 26.3288 55.987 25.9974 56.4087 25.5354C56.8305 25.0735 57.0414 24.471 57.0414 23.7279C57.0414 23.1655 56.9309 22.7036 56.71 22.3421C56.4891 21.9806 56.1778 21.6893 55.7761 21.4684C55.3945 21.2274 54.9326 21.0366 54.3903 20.896C53.7677 20.6952 53.0949 20.5245 52.3718 20.3839C51.6689 20.2433 50.9659 20.0826 50.263 19.9019C49.5801 19.7211 48.9375 19.4901 48.3349 19.209C47.8328 19.0081 47.3408 18.7671 46.8588 18.4859C46.3968 18.1847 45.9951 17.8332 45.6537 17.4315C45.3123 17.0098 45.0311 16.5177 44.8102 15.9553C44.6093 15.393 44.5089 14.7503 44.5089 14.0273C44.5089 13.0632 44.6595 12.2398 44.9608 11.5569C45.2822 10.8741 45.6939 10.3017 46.196 9.83974C46.7182 9.37781 47.3106 9.01629 47.9734 8.7552C48.6563 8.47402 49.3693 8.27318 50.1124 8.15268C50.8555 8.03217 51.5785 7.97192 52.2815 7.97192C53.5668 7.97192 54.7518 8.17276 55.8363 8.57444C56.9209 8.97613 57.8146 9.61882 58.5176 10.5025C59.2406 11.3661 59.6322 12.5109 59.6925 13.9369H56.5895C56.5091 13.1737 56.2481 12.5712 55.8062 12.1293C55.3844 11.6674 54.8522 11.346 54.2095 11.1653C53.5668 10.9644 52.884 10.864 52.1609 10.864C51.6388 10.864 51.1166 10.9142 50.5944 11.0147C50.0722 11.095 49.5902 11.2557 49.1483 11.4967C48.7266 11.7176 48.3851 12.0189 48.1241 12.4005C47.883 12.7821 47.7625 13.254 47.7625 13.8164C47.7625 14.2984 47.863 14.7302 48.0638 15.1118C48.2646 15.4733 48.5458 15.7846 48.9073 16.0457C49.2889 16.2867 49.7107 16.4976 50.1726 16.6784C51.0162 16.9997 51.94 17.2508 52.9442 17.4315C53.9484 17.5922 54.8924 17.8232 55.7761 18.1244C56.4188 18.3253 57.0213 18.5763 57.5836 18.8776C58.146 19.1587 58.628 19.5102 59.0297 19.932C59.4314 20.3337 59.7427 20.8157 59.9636 21.378C60.1845 21.9203 60.295 22.553 60.295 23.276C60.295 24.4609 60.0841 25.4752 59.6623 26.3187C59.2406 27.1422 58.6682 27.8049 57.9452 28.307C57.2221 28.8091 56.3886 29.1807 55.4447 29.4217C54.5007 29.6426 53.5166 29.7531 52.4923 29.7531ZM63.828 29.5121V13.6356H66.7803L66.931 15.865C67.3327 15.2825 67.8147 14.8206 68.377 14.4792C68.9394 14.1176 69.5419 13.8566 70.1846 13.6959C70.8273 13.5151 71.4499 13.4247 72.0524 13.4247C73.5788 13.4247 74.7738 13.7561 75.6374 14.4189C76.5211 15.0616 77.1437 15.9353 77.5052 17.0399C77.8868 18.1244 78.0776 19.3596 78.0776 20.7454V29.5121H74.9445V21.378C74.9445 20.7353 74.9044 20.1027 74.824 19.4801C74.7437 18.8575 74.573 18.3052 74.3119 17.8232C74.0709 17.3211 73.7194 16.9294 73.2575 16.6482C72.7955 16.347 72.1729 16.1963 71.3896 16.1963C70.4256 16.1963 69.6122 16.4574 68.9494 16.9796C68.2866 17.5018 67.7845 18.2048 67.4431 19.0885C67.1017 19.9722 66.931 20.9663 66.931 22.0709V29.5121H63.828ZM86.8354 29.6928C86.1124 29.6928 85.4094 29.6025 84.7266 29.4217C84.0638 29.2209 83.4713 28.9296 82.9491 28.548C82.4269 28.1464 82.0052 27.6543 81.6838 27.0719C81.3826 26.4693 81.2319 25.7664 81.2319 24.963C81.2319 23.999 81.4127 23.2057 81.7742 22.5831C82.1558 21.9404 82.6579 21.4483 83.2805 21.1069C83.9031 20.7454 84.6161 20.4943 85.4195 20.3537C86.2429 20.1931 87.0965 20.1127 87.9802 20.1127H91.8664C91.8664 19.3295 91.7459 18.6466 91.5049 18.0642C91.2639 17.4616 90.8823 16.9997 90.3601 16.6784C89.858 16.3369 89.1852 16.1662 88.3417 16.1662C87.8396 16.1662 87.3576 16.2265 86.8956 16.347C86.4538 16.4474 86.0722 16.6181 85.7508 16.8591C85.4295 17.1001 85.2086 17.4215 85.0881 17.8232H81.8345C81.955 17.06 82.2261 16.4072 82.6479 15.865C83.0696 15.3026 83.5918 14.8407 84.2144 14.4792C84.837 14.1176 85.4998 13.8566 86.2027 13.6959C86.9258 13.5151 87.6588 13.4247 88.4019 13.4247C90.6915 13.4247 92.3384 14.0976 93.3426 15.4432C94.3669 16.7687 94.8791 18.5964 94.8791 20.9261V29.5121H92.1978L92.0773 27.4936C91.6154 28.1162 91.0631 28.5882 90.4204 28.9096C89.7978 29.2309 89.1752 29.4418 88.5526 29.5422C87.93 29.6426 87.3576 29.6928 86.8354 29.6928ZM87.3174 27.0719C88.2212 27.0719 89.0145 26.9212 89.6974 26.62C90.3802 26.2986 90.9125 25.8467 91.294 25.2643C91.6756 24.6618 91.8664 23.9588 91.8664 23.1555V22.4927H89.0346C88.4522 22.4927 87.8798 22.5128 87.3174 22.553C86.7751 22.573 86.273 22.6534 85.8111 22.794C85.3692 22.9145 85.0077 23.1254 84.7266 23.4266C84.4655 23.7279 84.3349 24.1597 84.3349 24.722C84.3349 25.2643 84.4755 25.7062 84.7567 26.0476C85.0379 26.389 85.4094 26.6501 85.8713 26.8309C86.3333 26.9915 86.8153 27.0719 87.3174 27.0719ZM98.6025 35.2963V13.6356H101.555L101.705 15.8951C102.268 15.0716 103.001 14.4591 103.905 14.0574C104.808 13.6356 105.793 13.4247 106.857 13.4247C108.444 13.4247 109.749 13.7863 110.773 14.5093C111.798 15.2122 112.561 16.1863 113.063 17.4315C113.565 18.6566 113.816 20.0324 113.816 21.5588C113.816 23.1254 113.555 24.5212 113.033 25.7463C112.531 26.9715 111.747 27.9355 110.683 28.6384C109.639 29.3414 108.313 29.6928 106.706 29.6928C105.943 29.6928 105.24 29.6125 104.598 29.4518C103.975 29.2912 103.423 29.0602 102.941 28.7589C102.479 28.4376 102.067 28.066 101.705 27.6443V35.2963H98.6025ZM106.315 26.9212C107.399 26.9212 108.263 26.6802 108.906 26.1982C109.548 25.6961 110.01 25.0434 110.291 24.24C110.573 23.4367 110.713 22.563 110.713 21.619C110.713 20.6349 110.563 19.7412 110.261 18.9378C109.98 18.1144 109.508 17.4616 108.845 16.9796C108.203 16.4775 107.339 16.2265 106.254 16.2265C105.27 16.2265 104.437 16.4775 103.754 16.9796C103.071 17.4616 102.549 18.1144 102.187 18.9378C101.846 19.7613 101.675 20.655 101.675 21.619C101.675 22.6032 101.836 23.5069 102.157 24.3304C102.499 25.1338 103.011 25.7664 103.694 26.2283C104.397 26.6903 105.27 26.9212 106.315 26.9212ZM117.019 35.2963V13.6356H119.972L120.122 15.8951C120.685 15.0716 121.418 14.4591 122.322 14.0574C123.225 13.6356 124.209 13.4247 125.274 13.4247C126.861 13.4247 128.166 13.7863 129.19 14.5093C130.215 15.2122 130.978 16.1863 131.48 17.4315C131.982 18.6566 132.233 20.0324 132.233 21.5588C132.233 23.1254 131.972 24.5212 131.45 25.7463C130.948 26.9715 130.164 27.9355 129.1 28.6384C128.056 29.3414 126.73 29.6928 125.123 29.6928C124.36 29.6928 123.657 29.6125 123.014 29.4518C122.392 29.2912 121.84 29.0602 121.358 28.7589C120.896 28.4376 120.484 28.066 120.122 27.6443V35.2963H117.019ZM124.732 26.9212C125.816 26.9212 126.68 26.6802 127.323 26.1982C127.965 25.6961 128.427 25.0434 128.708 24.24C128.989 23.4367 129.13 22.563 129.13 21.619C129.13 20.6349 128.979 19.7412 128.678 18.9378C128.397 18.1144 127.925 17.4616 127.262 16.9796C126.62 16.4775 125.756 16.2265 124.671 16.2265C123.687 16.2265 122.854 16.4775 122.171 16.9796C121.488 17.4616 120.966 18.1144 120.604 18.9378C120.263 19.7613 120.092 20.655 120.092 21.619C120.092 22.6032 120.253 23.5069 120.574 24.3304C120.916 25.1338 121.428 25.7664 122.111 26.2283C122.814 26.6903 123.687 26.9212 124.732 26.9212ZM142.426 36.6821C141.2 36.6821 140.015 36.5114 138.871 36.17C137.726 35.8486 136.682 35.2762 135.738 34.4528L136.973 31.9824C137.696 32.5649 138.489 33.0268 139.353 33.3682C140.236 33.7097 141.17 33.8804 142.154 33.8804C143.781 33.8804 144.956 33.4385 145.679 32.5548C146.402 31.6711 146.764 30.5163 146.764 29.0903V27.5539C146.402 28.056 145.95 28.4778 145.408 28.8192C144.886 29.1405 144.303 29.3715 143.661 29.5121C143.018 29.6728 142.365 29.7531 141.703 29.7531C140.156 29.7531 138.921 29.4418 137.997 28.8192C137.093 28.1765 136.441 27.3028 136.039 26.1982C135.657 25.0936 135.466 23.8183 135.466 22.3722V13.6356H138.6V21.619C138.6 22.2617 138.64 22.9044 138.72 23.5471C138.8 24.1898 138.971 24.7722 139.232 25.2944C139.493 25.7965 139.875 26.2083 140.377 26.5296C140.879 26.8309 141.562 26.9815 142.426 26.9815C143.51 26.9815 144.364 26.7204 144.986 26.1982C145.609 25.6559 146.051 24.953 146.312 24.0894C146.573 23.2057 146.703 22.2517 146.703 21.2274V13.6356H149.806V28.7589C149.806 30.0041 149.656 31.1188 149.355 32.1029C149.073 33.087 148.622 33.9205 147.999 34.6034C147.396 35.2863 146.633 35.7984 145.709 36.1398C144.806 36.5013 143.711 36.6821 142.426 36.6821ZM170.954 29.7531C168.945 29.7531 167.298 29.3514 166.013 28.548C164.748 27.7246 163.814 26.5999 163.211 25.1739C162.609 23.748 162.307 22.091 162.307 20.2031V8.21293H165.501V20.2332C165.501 21.4182 165.671 22.5128 166.013 23.517C166.354 24.5212 166.927 25.3246 167.73 25.9271C168.533 26.5296 169.618 26.8309 170.984 26.8309C172.37 26.8309 173.454 26.5296 174.237 25.9271C175.021 25.3246 175.573 24.5212 175.894 23.517C176.216 22.5128 176.376 21.4182 176.376 20.2332V8.21293H179.6V20.2031C179.6 22.0709 179.299 23.7279 178.696 25.1739C178.093 26.5999 177.16 27.7246 175.894 28.548C174.629 29.3514 172.982 29.7531 170.954 29.7531ZM183.862 29.5121V13.6356H186.965V29.5121H183.862ZM185.398 11.5268C184.796 11.5268 184.304 11.346 183.922 10.9845C183.56 10.6029 183.38 10.1209 183.38 9.53848C183.38 8.95604 183.57 8.48407 183.952 8.12255C184.334 7.74096 184.816 7.55016 185.398 7.55016C185.94 7.55016 186.412 7.74096 186.814 8.12255C187.236 8.48407 187.447 8.95604 187.447 9.53848C187.447 10.1209 187.246 10.6029 186.844 10.9845C186.463 11.346 185.981 11.5268 185.398 11.5268Z" fill="white"/>
<ellipse cx="185.371" cy="8.86766" rx="2.10486" ry="1.92821" fill="#4599EC"/>
<path d="M27 18.9786L27.126 21.486L28.5591 19.0034L28.7796 18.209L29 17.216V16.4216V15.9251V15.23V14.8328L28.7796 14.0383L28.3386 12.6481L27.7874 11.5558L27.2363 10.7614L26.6851 10.0663L21.504 5.49841L20.2914 4.704L19.4095 4.20749L18.7481 3.90959L17.315 3.51238L16.5433 3.31378L15 3.21448L13.0158 3.31378L11.5827 3.61168L10.4804 4.00889L9.48823 4.5054L8.38587 5.20051L6.9528 6.39213L6.18114 7.28584L5.51973 8.17955L5.07878 9.07327L4.74807 9.86768L4.41737 11.5558L4.30713 12.7474L4.5276 14.5349L5.51973 16.9181L6.51185 18.5069L14.6693 25.458L15.7717 25.5573L16.7638 25.3587L17.9764 24.6636L18.5276 23.5713L18.4174 22.5783L18.0867 21.9825L9.26776 14.1376V13.1446V11.5558L10.0394 9.86768L11.4725 8.57676L13.6772 7.68305H15.2205L16.5433 8.08025L26 16.7266L27 18.9786Z" fill="white" stroke="black"/>
<path d="M2.98421 16.9181L2.87397 14.2369L1.4409 16.7195L1.22043 17.5139L0.999958 18.5069V19.3013V19.7978V20.4929V20.8901L1.22043 21.6846L1.66138 23.0748L2.21256 24.1671L2.76374 24.9615L3.31492 25.6566L8.49602 30.2245L9.70862 31.0189L10.5905 31.5154L11.2519 31.8133L12.685 32.2105L13.4567 32.4091L15 32.5084L16.9842 32.4091L18.4173 32.1112L19.5196 31.714L20.5118 31.2175L21.6141 30.5224L23.0472 29.3308L23.8189 28.4371L24.4803 27.5433L24.9212 26.6496L25.2519 25.8552L25.5826 24.1671L25.6929 22.9755L25.4724 21.1881L24.4803 18.8048L23.4881 17.216L15.3307 10.2649L14.2283 10.1656L13.2362 10.3642L12.0236 11.0593L11.4724 12.1516L11.5826 13.1446L11.9133 13.7404L20.7322 21.5853V22.5783V24.1671L19.9606 25.8552L18.5275 27.1461L16.3228 28.0399H14.7795L13.4567 27.6426L4.08657 19.3013L2.98421 16.9181Z" fill="white" stroke="black"/>
</svg>
