<svg width="20" height="19" viewBox="0 0 20 19" fill="none" xmlns="http://www.w3.org/2000/svg">
<path d="M1.32043 0.386556C0.942752 0.37435 0.62555 0.639082 0.611942 0.977851L0.390188 6.49842C0.37658 6.83719 0.671718 7.12171 1.0494 7.13391C1.42708 7.14612 1.74428 6.88139 1.75789 6.54262L1.955 1.63545L7.42579 1.81226C7.80347 1.82446 8.12068 1.55973 8.13428 1.22096C8.14789 0.882192 7.85275 0.597671 7.47507 0.585465L1.32043 0.386556ZM9.71216 8.21251L1.79677 0.581843L0.794815 1.41806L8.7102 9.04872L9.71216 8.21251Z" fill="#42A5F5"/>
<path d="M18.6796 18.6134C19.0572 18.6257 19.3744 18.3609 19.3881 18.0221L19.6098 12.5016C19.6234 12.1628 19.3283 11.8783 18.9506 11.8661C18.5729 11.8539 18.2557 12.1186 18.2421 12.4574L18.045 17.3646L12.5742 17.1877C12.1965 17.1755 11.8793 17.4403 11.8657 17.779C11.8521 18.1178 12.1472 18.4023 12.5249 18.4145L18.6796 18.6134ZM10.2878 10.7875L18.2032 18.4182L19.2052 17.5819L11.2898 9.95128L10.2878 10.7875Z" fill="#42A5F5"/>
</svg>
